<?xml version="1.0" encoding="utf-8"?>
<!-- Generator: Adobe Illustrator 13.0.0, SVG Export Plug-In . SVG Version: 6.00 Build 14948)  -->
<svg version="1.2" baseProfile="tiny" id="Layer_1" xmlns="http://www.w3.org/2000/svg" xmlns:xlink="http://www.w3.org/1999/xlink"
	 x="0px" y="0px" width="7.691px" height="15.967px" viewBox="0 0 7.691 15.967" xml:space="preserve">
<g>
	<path fill="#787878" d="M5.047,5.973c0.282-0.085,0.411,0.042,0.589,0.196C5.74,6.26,5.86,6.344,5.881,6.416
		c0.059,0.195,0,0.549,0,0.818c0,0.562,0,1.081,0,1.64c0,0.271,0.039,0.559,0,0.803c-0.025,0.162-0.18,0.426-0.296,0.671
		c-0.108,0.237-0.219,0.447-0.311,0.64c-0.208,0.446-0.387,0.938-0.623,1.294c-0.095,0.146-0.236,0.254-0.393,0.409
		c-0.133,0.135-0.309,0.36-0.442,0.36c-0.265,0-0.326-0.461-0.476-0.606c-0.092-0.088-0.3-0.156-0.443-0.229
		c-0.349-0.176-0.535-0.272-0.835-0.54c-0.279-0.248-0.413-0.43-0.639-0.755c-0.143-0.208-0.383-0.44-0.295-0.786
		C1.17,9.977,1.416,9.814,1.538,9.69c0.141-0.14,0.331-0.264,0.426-0.425c0.121-0.204,0.146-0.515,0.263-0.688
		C2.404,8.312,2.742,8.215,2.98,7.988C2.794,7.701,2.56,7.459,2.341,7.203c-0.396,0.041-0.708,0-0.639-0.426
		C1.45,6.737,1.153,6.847,1.014,6.727C0.87,6.601,1.008,6.142,1.047,5.909c0.057-0.341,0.11-0.623,0.147-0.837
		C1.116,4.805,0.758,4.676,0.785,4.384c0.025-0.284,0.6-0.402,0.753-0.59C1.565,3.625,1.62,3.38,1.686,3.089
		c0.058-0.248,0.093-0.661,0.295-0.672C2.184,2.408,2.522,2.591,2.736,2.68c0.595,0.249,1.148,0.481,1.769,0.738
		c0.109,0.045,0.278,0.093,0.343,0.146c0.095,0.077,0.182,0.267,0.265,0.394c0.085,0.131,0.227,0.309,0.246,0.41
		c0.035,0.187-0.053,0.43-0.084,0.638C5.218,5.413,5.207,5.692,5.047,5.973z"/>
</g>
</svg>
